<?xml version="1.0" standalone="no"?>
<!DOCTYPE svg PUBLIC "-//W3C//DTD SVG 20010904//EN"
 "http://www.w3.org/TR/2001/REC-SVG-20010904/DTD/svg10.dtd">
<svg version="1.0" xmlns="http://www.w3.org/2000/svg"
 width="48.000000pt" height="48.000000pt" viewBox="0 0 48.000000 48.000000"
 preserveAspectRatio="xMidYMid meet">
<metadata>
Created by potrace 1.10, written by Peter Selinger 2001-2011
</metadata>
<g transform="translate(0.000000,48.000000) scale(0.100000,-0.100000)"
fill="#000000" stroke="none">
<path d="M115 429 c-36 -18 -75 -80 -75 -118 0 -95 115 -166 187 -116 21 15
23 14 47 -22 13 -21 49 -63 80 -93 47 -45 59 -53 74 -44 33 21 22 41 -63 123
-73 70 -84 85 -75 101 27 51 -3 135 -59 165 -34 17 -86 19 -116 4z m114 -35
c13 -9 29 -32 37 -50 40 -97 -89 -182 -165 -110 -53 51 -49 108 13 158 27 22
85 23 115 2z m65 -179 c14 -10 17 -18 10 -25 -7 -7 -18 -2 -34 15 -26 28 -9
35 24 10z"/>
</g>
</svg>
